<svg id="Calque_1" data-name="Calque 1" xmlns="http://www.w3.org/2000/svg" viewBox="0 0 132.51 121.74"><defs><style>.cls-1,.cls-3{fill:none;}.cls-1{stroke:#1d1d1b;stroke-miterlimit:10;stroke-width:4px;}.cls-2{fill:#1d1d1b;}</style></defs><title>effacer</title><rect class="cls-1" x="365.91" y="243.54" width="17.81" height="55.49" rx="4.83" ry="4.83" transform="translate(-104.41 -367.3) rotate(28.67)"/><line class="cls-1" x1="86.46" y1="46.28" x2="102.08" y2="54.83"/><path class="cls-2" d="M303.77,290.9a10,10,0,0,0-7,5.62,2.54,2.54,0,0,0,2.16,3.76c17,2.16,31.67-7.94,48-10.32l-2.43-4.18c-6.92,6.63-15.77,10.8-21.25,18.91a2.51,2.51,0,0,0,2.16,3.76,96.63,96.63,0,0,0,21.15-3.94l-2.43-4.18-10.79,12.31a2.51,2.51,0,0,0,3,3.93c8.43-4.47,16.87-8.87,25.89-12l-2.82-3.67-3.78,6.91c-.82,1.5.17,4,2.16,3.76a113.42,113.42,0,0,0,20.09-4.12c3.07-.93,1.76-5.76-1.33-4.82a106.1,106.1,0,0,1-18.76,3.94l2.16,3.76,3.78-6.91c1-1.79-.67-4.43-2.82-3.67-9.43,3.31-18.27,7.88-27.08,12.55l3,3.93,10.79-12.31c1.56-1.78.1-5-2.43-4.18a90.45,90.45,0,0,1-19.82,3.76l2.16,3.76c5.16-7.63,13.93-11.63,20.46-17.9,2-1.9-.16-4.51-2.43-4.18-15.85,2.31-30.22,12.23-46.66,10.14l2.16,3.76a5.55,5.55,0,0,1,4-3.32c3.12-.77,1.8-5.59-1.33-4.82Z" transform="translate(-280.54 -220.73)"/><rect class="cls-3" width="132.51" height="121.74"/></svg>