<svg id="Calque_1" data-name="Calque 1" xmlns="http://www.w3.org/2000/svg" viewBox="0 0 132.51 121.74"><defs><style>.cls-1,.cls-2{fill:none;}.cls-1{stroke:#1d1d1b;stroke-miterlimit:10;stroke-width:4px;}</style></defs><title>groupe</title><path class="cls-1" d="M178.71,499.69V484c0-4.8,5-8.72,11-8.72H223.4c6.06,0,11,3.92,11,8.72V500" transform="translate(-141.55 -405.76)"/><ellipse class="cls-1" cx="65.02" cy="55.11" rx="11.99" ry="14.45"/><path class="cls-1" d="M222.13,475.89V465.61c0-3.15,3.26-5.73,7.24-5.73h22.11c4,0,7.24,2.58,7.24,5.73v10.47" transform="translate(-141.55 -405.76)"/><ellipse class="cls-1" cx="98.88" cy="44.63" rx="7.88" ry="9.49"/><path class="cls-1" d="M154.27,475.13V464.85c0-3.15,3.26-5.73,7.24-5.73h22.11c4,0,7.24,2.58,7.24,5.73v10.47" transform="translate(-141.55 -405.76)"/><ellipse class="cls-1" cx="31.02" cy="43.87" rx="7.88" ry="9.49"/><rect class="cls-2" width="132.51" height="121.74"/></svg>